<svg width="94" height="94" viewBox="0 0 94 94" fill="none" xmlns="http://www.w3.org/2000/svg">
<g clip-path="url(#clip0_1968_945)">
<path d="M88.125 23.5V17.625H52.875C52.875 7.69625 58.75 5.875 58.75 5.875V0H29.375V5.875C29.375 5.875 35.25 7.69625 35.25 17.625H0V88.125H11.75V94H94V23.5H88.125ZM82.25 82.25H5.875V23.5H29.375V29.375H41.125V41.125H47V29.375H58.75V23.5H82.25V82.25Z" fill="black"/>
<path d="M51.875 52.125C51.875 54.2136 51.0453 56.2166 49.5685 57.6935C48.0916 59.1703 46.0886 60 44 60C41.9114 60 39.9084 59.1703 38.4315 57.6935C36.9547 56.2166 36.125 54.2136 36.125 52.125C36.125 50.0364 36.9547 48.0334 38.4315 46.5565C39.9084 45.0797 41.9114 44.25 44 44.25C46.0886 44.25 48.0916 45.0797 49.5685 46.5565C51.0453 48.0334 51.875 50.0364 51.875 52.125ZM49.625 52.125C49.625 50.6332 49.0324 49.2024 47.9775 48.1475C46.9226 47.0926 45.4918 46.5 44 46.5C42.5082 46.5 41.0774 47.0926 40.0225 48.1475C38.9676 49.2024 38.375 50.6332 38.375 52.125C38.375 53.6168 38.9676 55.0476 40.0225 56.1025C41.0774 57.1574 42.5082 57.75 44 57.75C45.4918 57.75 46.9226 57.1574 47.9775 56.1025C49.0324 55.0476 49.625 53.6168 49.625 52.125ZM34.4375 62.25C33.3932 62.25 32.3917 62.6648 31.6533 63.4033C30.9148 64.1417 30.5 65.1432 30.5 66.1875V66.75C30.5 69.4421 32.2134 71.7191 34.6456 73.2671C37.0914 74.8241 40.4023 75.75 44 75.75C47.5977 75.75 50.9075 74.8241 53.3544 73.2671C55.7866 71.7191 57.5 69.4421 57.5 66.75V66.1875C57.5 65.1432 57.0852 64.1417 56.3467 63.4033C55.6083 62.6648 54.6068 62.25 53.5625 62.25H34.4375ZM32.75 66.1875C32.75 65.7399 32.9278 65.3107 33.2443 64.9943C33.5607 64.6778 33.9899 64.5 34.4375 64.5H53.5625C54.0101 64.5 54.4393 64.6778 54.7557 64.9943C55.0722 65.3107 55.25 65.7399 55.25 66.1875V66.75C55.25 68.4071 54.1925 70.0676 52.1461 71.3693C50.1132 72.663 47.2366 73.5 44 73.5C40.7634 73.5 37.8867 72.663 35.8539 71.3693C33.8064 70.0688 32.75 68.406 32.75 66.75V66.1875Z" fill="black"/>
</g>
<defs>
<clipPath id="clip0_1968_945">
<rect width="94" height="94" fill="white"/>
</clipPath>
</defs>
</svg>
