<svg width="87" height="83" viewBox="0 0 87 83" fill="none" xmlns="http://www.w3.org/2000/svg">
<path d="M72.5 38.0413H83.375V44.958H72.5V38.0413ZM3.625 38.0413H14.5V44.958H3.625V38.0413ZM47.125 3.45801V13.833H39.875V3.45801H47.125ZM17.835 12.1038L25.5563 19.5047L20.4088 24.3809L12.6875 17.0493L17.835 12.1038ZM61.4438 19.4701L69.1287 12.1038L74.3125 17.0493L66.5913 24.3809L61.4438 19.4701ZM43.5 20.7497C49.2685 20.7497 54.8007 22.9358 58.8796 26.8272C62.9585 30.7186 65.25 35.9964 65.25 41.4997C65.25 49.1772 60.8638 55.8863 54.375 59.483V65.708C54.375 66.6252 53.9931 67.5049 53.3133 68.1534C52.6334 68.802 51.7114 69.1663 50.75 69.1663H36.25C35.2886 69.1663 34.3666 68.802 33.6867 68.1534C33.0069 67.5049 32.625 66.6252 32.625 65.708V59.483C26.1362 55.8863 21.75 49.1772 21.75 41.4997C21.75 35.9964 24.0415 30.7186 28.1204 26.8272C32.1993 22.9358 37.7315 20.7497 43.5 20.7497ZM50.75 72.6247V76.083C50.75 77.0002 50.3681 77.8799 49.6883 78.5284C49.0084 79.177 48.0864 79.5413 47.125 79.5413H39.875C38.9136 79.5413 37.9916 79.177 37.3117 78.5284C36.6319 77.8799 36.25 77.0002 36.25 76.083V72.6247H50.75ZM39.875 62.2497H47.125V54.8834C53.3963 53.3618 58 47.9322 58 41.4997C58 37.8308 56.4723 34.3123 53.753 31.718C51.0338 29.1238 47.3456 27.6663 43.5 27.6663C39.6544 27.6663 35.9662 29.1238 33.247 31.718C30.5277 34.3123 29 37.8308 29 41.4997C29 47.9322 33.6038 53.3618 39.875 54.8834V62.2497Z" fill="black"/>
</svg>
