<svg width="48" height="81" viewBox="0 0 48 81" fill="none" xmlns="http://www.w3.org/2000/svg">
<path d="M12.4527 47.5824C11.9656 46.1102 11.5306 44.6567 11.1476 43.2221C10.7647 41.7874 10.4339 40.302 10.1551 38.7658L6.66602 41.0179L6.67143 49.7732L12.4527 47.5824ZM23.2124 8.41887C20.8522 10.8574 18.9705 14.1161 17.5671 18.195C16.1637 22.2739 15.4627 26.5723 15.4641 31.0903C15.4659 34.0088 15.7282 36.8821 16.2509 39.7102C16.7736 42.5384 17.4871 44.9721 18.3913 47.0113L30.2173 47.2748C31.119 45.2838 31.8295 42.8881 32.3488 40.0878C32.868 37.2875 33.1267 34.4281 33.1249 31.5096C33.1221 26.9929 32.4248 22.6662 31.0331 18.5294C29.6413 14.3925 27.7638 11.0418 25.4005 8.47727C25.2615 8.33459 25.0961 8.21761 24.9043 8.12633C24.7126 8.03505 24.5132 7.98595 24.3062 7.97903C24.0978 7.97347 23.8985 8.01193 23.7082 8.0944C23.5179 8.17687 23.3527 8.28503 23.2124 8.41887ZM24.2692 32.4198C22.6715 32.3771 21.2909 31.7587 20.1274 30.5644C18.9639 29.3702 18.381 27.9732 18.3786 26.3736C18.3776 24.7754 18.9672 23.4014 20.1473 22.2516C21.3274 21.1019 22.7163 20.5483 24.314 20.591C25.9116 20.6336 27.2929 21.2528 28.4578 22.4484C29.6227 23.6441 30.2049 25.0403 30.2045 26.6371C30.2055 28.2353 29.6159 29.6093 28.4358 30.7591C27.2557 31.9088 25.8668 32.4624 24.2692 32.4198ZM36.1568 48.1629L41.9931 50.716L41.9877 41.9606L38.4958 39.5222C38.2188 41.0436 37.8815 42.5028 37.4836 43.9C37.0858 45.2971 36.6435 46.7181 36.1568 48.1629ZM26.5946 1.78636C30.695 5.43959 33.7978 9.87432 35.903 15.0905C38.0081 20.3068 39.062 26.2148 39.0647 32.8147L45.2667 37.0972C46.1006 37.6754 46.7436 38.4048 47.1956 39.2854C47.6477 40.1661 47.874 41.0928 47.8746 42.0656L47.8827 55.1987C47.8833 56.241 47.4587 57.0552 46.6089 57.6412C45.7591 58.2272 44.8471 58.298 43.873 57.8537L33.2426 53.2966L15.4254 52.8211L4.80032 56.8109C3.8281 57.2019 2.90767 57.0904 2.03902 56.4766C1.17038 55.8628 0.735731 55.0347 0.735087 53.9924L0.72698 40.8593C0.72638 39.8865 0.959897 38.9637 1.42753 38.091C1.89516 37.2182 2.54627 36.5143 3.38086 35.9793L9.57785 32.0277C9.57377 25.4264 10.6211 19.5737 12.7199 14.4697C14.8186 9.36568 17.9153 5.09711 22.0101 1.664C22.3225 1.42914 22.6787 1.23922 23.0787 1.09425C23.4787 0.949279 23.8864 0.88164 24.3018 0.891338C24.7186 0.90246 25.1271 0.991191 25.5273 1.15752C25.9275 1.32385 26.2832 1.53346 26.5946 1.78636ZM15.4844 63.923C15.4829 61.491 16.3506 59.4122 18.0874 57.6867C19.8243 55.9611 21.9069 55.1308 24.3353 55.1956C26.7665 55.2605 28.8516 56.2021 30.5907 58.0204C32.3297 59.8387 33.1986 61.9638 33.1973 64.3958C33.1994 67.7312 32.2197 70.6672 30.2583 73.2039C28.2969 75.7406 26.3278 78.2848 24.3511 80.8364L18.4323 72.8862C16.4677 70.2447 15.4851 67.257 15.4844 63.923ZM21.3713 64.0281C21.372 65.2093 21.677 66.3376 22.2861 67.4128C22.8953 68.488 23.5641 69.5398 24.2927 70.5682C25.0214 69.5801 25.6981 68.5733 26.3226 67.5477C26.9471 66.522 27.259 65.4186 27.2583 64.2373C27.2578 63.4034 26.9795 62.6664 26.4234 62.0262C25.8673 61.386 25.1725 61.0548 24.3389 61.0325C23.5054 61.0103 22.8019 61.2951 22.2285 61.8871C21.6551 62.4791 21.3694 63.1928 21.3713 64.0281Z" fill="#0E79B2"/>
</svg>
