<svg width="59" height="69" viewBox="0 0 59 69" fill="none" xmlns="http://www.w3.org/2000/svg">
<path d="M11.375 0.75H47.625C50.5092 0.75 53.2753 1.81674 55.3148 3.71554C57.3542 5.61435 58.5 8.18968 58.5 10.875V58.125C58.5 60.8103 57.3542 63.3857 55.3148 65.2845C53.2753 67.1833 50.5092 68.25 47.625 68.25H11.375C8.49077 68.25 5.72467 67.1833 3.68521 65.2845C1.64576 63.3857 0.5 60.8103 0.5 58.125L0.5 10.875C0.5 8.18968 1.64576 5.61435 3.68521 3.71554C5.72467 1.81674 8.49077 0.75 11.375 0.75ZM11.375 7.5C10.4136 7.5 9.49156 7.85558 8.81174 8.48851C8.13192 9.12145 7.75 9.97989 7.75 10.875V58.125C7.75 59.0201 8.13192 59.8786 8.81174 60.5115C9.49156 61.1444 10.4136 61.5 11.375 61.5H47.625C48.5864 61.5 49.5084 61.1444 50.1883 60.5115C50.8681 59.8786 51.25 59.0201 51.25 58.125V10.875C51.25 9.97989 50.8681 9.12145 50.1883 8.48851C49.5084 7.85558 48.5864 7.5 47.625 7.5H11.375ZM18.625 10.875H40.375C41.3364 10.875 42.2584 11.2306 42.9383 11.8635C43.6181 12.4964 44 13.3549 44 14.25C44 15.1451 43.6181 16.0035 42.9383 16.6365C42.2584 17.2694 41.3364 17.625 40.375 17.625H18.625C17.6636 17.625 16.7416 17.2694 16.0617 16.6365C15.3819 16.0035 15 15.1451 15 14.25C15 13.3549 15.3819 12.4964 16.0617 11.8635C16.7416 11.2306 17.6636 10.875 18.625 10.875ZM18.625 51.375H25.875C26.8364 51.375 27.7584 51.7306 28.4383 52.3635C29.1181 52.9965 29.5 53.8549 29.5 54.75C29.5 55.6451 29.1181 56.5036 28.4383 57.1365C27.7584 57.7694 26.8364 58.125 25.875 58.125H18.625C17.6636 58.125 16.7416 57.7694 16.0617 57.1365C15.3819 56.5036 15 55.6451 15 54.75C15 53.8549 15.3819 52.9965 16.0617 52.3635C16.7416 51.7306 17.6636 51.375 18.625 51.375ZM18.625 37.875H40.375C41.3364 37.875 42.2584 38.2306 42.9383 38.8635C43.6181 39.4965 44 40.3549 44 41.25C44 42.1451 43.6181 43.0035 42.9383 43.6365C42.2584 44.2694 41.3364 44.625 40.375 44.625H18.625C17.6636 44.625 16.7416 44.2694 16.0617 43.6365C15.3819 43.0035 15 42.1451 15 41.25C15 40.3549 15.3819 39.4965 16.0617 38.8635C16.7416 38.2306 17.6636 37.875 18.625 37.875ZM18.625 24.375H40.375C41.3364 24.375 42.2584 24.7306 42.9383 25.3635C43.6181 25.9965 44 26.8549 44 27.75C44 28.6451 43.6181 29.5035 42.9383 30.1365C42.2584 30.7694 41.3364 31.125 40.375 31.125H18.625C17.6636 31.125 16.7416 30.7694 16.0617 30.1365C15.3819 29.5035 15 28.6451 15 27.75C15 26.8549 15.3819 25.9965 16.0617 25.3635C16.7416 24.7306 17.6636 24.375 18.625 24.375Z" fill="black"/>
</svg>
