<svg width="70" height="70" viewBox="0 0 70 70" fill="none" xmlns="http://www.w3.org/2000/svg">
<path d="M35 0C39.6413 0 44.0925 1.84374 47.3744 5.12563C50.6563 8.40752 52.5 12.8587 52.5 17.5C52.5 22.1413 50.6563 26.5925 47.3744 29.8744C44.0925 33.1563 39.6413 35 35 35C30.3587 35 25.9075 33.1563 22.6256 29.8744C19.3437 26.5925 17.5 22.1413 17.5 17.5C17.5 12.8587 19.3437 8.40752 22.6256 5.12563C25.9075 1.84374 30.3587 0 35 0ZM35 8.75C32.6794 8.75 30.4538 9.67187 28.8128 11.3128C27.1719 12.9538 26.25 15.1794 26.25 17.5C26.25 19.8206 27.1719 22.0462 28.8128 23.6872C30.4538 25.3281 32.6794 26.25 35 26.25C37.3206 26.25 39.5462 25.3281 41.1872 23.6872C42.8281 22.0462 43.75 19.8206 43.75 17.5C43.75 15.1794 42.8281 12.9538 41.1872 11.3128C39.5462 9.67187 37.3206 8.75 35 8.75ZM35 39.375C46.6813 39.375 70 45.1937 70 56.875V70H0V56.875C0 45.1937 23.3188 39.375 35 39.375ZM35 47.6875C22.0063 47.6875 8.3125 54.075 8.3125 56.875V61.6875H61.6875V56.875C61.6875 54.075 47.9938 47.6875 35 47.6875Z" fill="black"/>
</svg>
