<svg width="133" height="89" viewBox="0 0 133 89" fill="none" xmlns="http://www.w3.org/2000/svg">
<path d="M115.859 32.875C120.742 34.5026 124.648 37.4323 127.578 41.6641C130.508 45.5703 131.973 49.9648 131.973 54.8477C132.298 59.7305 130.996 64.6133 128.066 69.4961C125.462 74.0534 121.23 77.9596 115.371 81.2148C105.931 86.0977 97.6302 87.3997 90.4688 85.1211C83.3073 82.5169 78.2617 78.6107 75.332 73.4023C73.7044 70.7982 72.4023 67.2174 71.4258 62.6602C70.7747 58.1029 70.4492 53.3828 70.4492 48.5C70.7747 43.2917 71.4258 38.2461 72.4023 33.3633C73.3789 28.4805 74.8438 24.4115 76.7969 21.1562C78.4245 18.8776 80.3776 16.4362 82.6562 13.832C84.6094 11.5534 86.888 9.27474 89.4922 6.99609C92.4219 4.71745 95.6771 2.60156 99.2578 0.648438L116.348 1.625C114.069 4.22917 111.953 6.67057 110 8.94922C108.372 10.9023 106.908 12.6927 105.605 14.3203C104.303 15.9479 103.001 17.4128 101.699 18.7148C99.4206 20.9935 97.6302 23.2721 96.3281 25.5508C95.026 27.5039 93.8867 29.6198 92.9102 31.8984C92.2591 34.1771 92.2591 36.4557 92.9102 38.7344C97.1419 34.1771 102.025 31.8984 107.559 31.8984C110.163 31.8984 112.93 32.224 115.859 32.875ZM48.4766 35.3164C53.0339 37.9206 56.2891 41.5013 58.2422 46.0586C60.5208 50.2904 61.3346 54.8477 60.6836 59.7305C60.0326 64.6133 57.9167 69.1706 54.3359 73.4023C51.0807 77.6341 46.1979 80.8893 39.6875 83.168C29.5964 86.4232 21.2956 86.2604 14.7852 82.6797C8.27474 78.7734 3.88021 74.0534 1.60156 68.5195C0.625 65.5898 0.136719 61.8464 0.136719 57.2891C0.136719 52.7318 0.625 48.0117 1.60156 43.1289C2.57812 38.2461 3.88021 33.526 5.50781 28.9688C7.13542 24.4115 9.2513 20.668 11.8555 17.7383C13.8086 15.4596 16.0872 13.3438 18.6914 11.3906C20.9701 9.76302 23.5742 7.97266 26.5039 6.01953C29.7591 4.06641 33.3398 2.27604 37.2461 0.648438L54.3359 5.04297C51.7318 7.32161 49.2904 9.27474 47.0117 10.9023C45.0586 12.5299 43.2682 13.9948 41.6406 15.2969C40.013 16.599 38.3854 17.901 36.7578 19.2031C34.4792 21.1562 32.526 23.1094 30.8984 25.0625C29.2708 26.6901 27.806 28.6432 26.5039 30.9219C25.2018 32.875 24.7135 34.9909 25.0391 37.2695C27.6432 35.3164 30.2474 34.1771 32.8516 33.8516C35.7812 33.2005 38.3854 33.0378 40.6641 33.3633C43.2682 33.6888 45.8724 34.3398 48.4766 35.3164Z" fill="#C8C9C9"/>
</svg>
